<?xml version="1.0" encoding="utf-8"?>
<!-- Generator: Adobe Illustrator 22.1.0, SVG Export Plug-In . SVG Version: 6.00 Build 0)  -->
<svg version="1.1" id="Layer_1" xmlns="http://www.w3.org/2000/svg" xmlns:xlink="http://www.w3.org/1999/xlink" x="0px" y="0px"
	 width="40px" height="44px" viewBox="0 0 40 44" style="enable-background:new 0 0 40 44;" xml:space="preserve">
<style type="text/css">
	.st0{fill:#FFFFFF;}
</style>
<path class="st0" d="M20,43.4c-1.8,0-3.2-1.4-3.2-3.2l0,0V36c-2.9-0.6-5.5-2-7.5-4.1C6.4,29,4.8,25.2,4.9,21.1
	c-0.1-4,1.6-7.9,4.4-10.7C12.1,7.5,16,5.9,20,6c4.1-0.1,8,1.5,10.7,4.5c2.9,2.8,4.5,6.7,4.4,10.7c0,4-1.6,7.9-4.5,10.7
	c-2,2.1-4.7,3.6-7.5,4.1v4.3C23.2,42,21.7,43.4,20,43.4z M20,12.9c-2.2,0-4.3,0.9-5.8,2.4c-3.2,3.1-3.3,8.3-0.2,11.5
	c0.1,0.1,0.1,0.1,0.2,0.2c1.5,1.6,3.6,2.5,5.8,2.5c2.2,0,4.3-0.9,5.8-2.5c1.6-1.5,2.4-3.6,2.4-5.8c0-2.2-0.8-4.3-2.4-5.9
	C24.3,13.7,22.2,12.9,20,12.9z"/>
</svg>
